<svg xmlns="http://www.w3.org/2000/svg" width="46" height="50" viewBox="0 0 46 50">
  <defs>
    <linearGradient id="skin" x1="0" y1="0" x2="1" y2="1">
      <stop stop-color="#f4bd94"/>
      <stop offset=".58" stop-color="#c77b55"/>
      <stop offset="1" stop-color="#85452f"/>
    </linearGradient>
    <linearGradient id="armor" x1="0" y1="0" x2="1" y2="1">
      <stop stop-color="#dff8ff"/>
      <stop offset=".45" stop-color="#51859f"/>
      <stop offset="1" stop-color="#18384e"/>
    </linearGradient>
    <filter id="glow" x="-40%" y="-40%" width="180%" height="180%">
      <feDropShadow dx="0" dy="0" stdDeviation="2" flood-color="#61e6ff" flood-opacity=".9"/>
      <feDropShadow dx="1" dy="3" stdDeviation="1.5" flood-color="#020812" flood-opacity=".75"/>
    </filter>
  </defs>
  <g filter="url(#glow)" stroke="#4f291f" stroke-width="1.1" stroke-linejoin="round">
    <path d="M13 45c-2-6-4-12-5-18L5 14c-.5-2.5.7-4.3 2.6-4.6 2-.3 3.4 1 3.8 3.2l2.1 9.1L12 8.3c-.2-2.6 1.3-4.2 3.3-4.3 2.1-.1 3.5 1.4 3.7 3.9l1.1 12.3.4-15.2c.1-2.5 1.7-4 3.8-4 2.2.1 3.5 1.8 3.4 4.3l-.5 15.5L29.5 8c.4-2.4 2-3.8 4-3.5 2 .3 3.1 2 2.7 4.4l-2.4 15.8 3.9-6.5c1.3-2.1 3.3-2.7 5-1.6 1.7 1.2 1.8 3.3.5 5.4l-5.7 9c-3 4.8-5.2 8.1-5.4 14z" fill="url(#skin)"/>
    <path d="M12.5 39h20l1.2 8.5c-6.5 2-14.7 2-21.7 0z" fill="url(#armor)" stroke="#bcefff" stroke-width="1.4"/>
    <path d="m15.5 43 4-2 3.5 3 4-3 3.5 2" fill="none" stroke="#8ff1ff" stroke-width="1.6"/>
    <path d="M12.6 24c6-2.4 14.5-2.3 21.2.7" fill="none" stroke="#9a583e" opacity=".65"/>
  </g>
</svg>
