<svg xmlns="http://www.w3.org/2000/svg" viewBox="0 0 64 64">
  <defs>
    <linearGradient id="bg" x1="8" y1="6" x2="56" y2="58" gradientUnits="userSpaceOnUse">
      <stop stop-color="#ff7a45"/>
      <stop offset=".34" stop-color="#ffd84d"/>
      <stop offset=".66" stop-color="#36d69a"/>
      <stop offset="1" stop-color="#8c63ff"/>
    </linearGradient>
    <linearGradient id="alien" x1="22" y1="15" x2="43" y2="50" gradientUnits="userSpaceOnUse">
      <stop stop-color="#d9ff86"/>
      <stop offset="1" stop-color="#61ef9d"/>
    </linearGradient>
  </defs>
  <rect x="2" y="2" width="60" height="60" rx="17" fill="#0c1729"/>
  <rect x="4" y="4" width="56" height="56" rx="15" fill="none" stroke="url(#bg)" stroke-width="4"/>
  <path d="M32 12c-10 0-18 8-18 19 0 12 9 22 18 22s18-10 18-22c0-11-8-19-18-19Z" fill="url(#alien)"/>
  <path d="M18 28c5-5 12-5 13 0 1 6-4 11-9 8-3-2-4-5-4-8Zm28 0c-5-5-12-5-13 0-1 6 4 11 9 8 3-2 4-5 4-8Z" fill="#08111f"/>
  <circle cx="25" cy="29" r="2.2" fill="#fff" opacity=".85"/>
  <circle cx="39" cy="29" r="2.2" fill="#fff" opacity=".85"/>
  <path d="M26 43c4 3 8 3 12 0" fill="none" stroke="#0b4b45" stroke-width="2.5" stroke-linecap="round"/>
</svg>
